# xmcd
#
# Track frame offsets:
#	150
#	13933
#	28146
#	43266
#	57851
#	72422
#	87350
#	102464
#	116557
#	130650
#	145096
#	160347
#
# Disc length: 2333 seconds
#
# Revision: 1
# Processed by: cddbd v1.5.2PL0 Copyright (c) Steve Scherf et al.
# Submitted via: audiograbber 1.83.01
#
DISCID=ab091b0c
DTITLE=MATYI és a HEGEDÛS - Húzd rá gitár
DYEAR=1900
DGENRE=
TTITLE0=Húzd rá, gitár !
TTITLE1=Szánon megyek
TTITLE2=Kalapom, kalapom, Csurgóra
TTITLE3=Kék a szilva
TTITLE4=Kalapomon piros szegfû
TTITLE5=Három bokor saláta
TTITLE6=Egy forró éjszakán
TTITLE7=Rámás csizmát visel a babám
TTITLE8=Csóró vagyok
TTITLE9=Véget ért
TTITLE10=Sukár a roma leány
TTITLE11=Boldogságom
EXTD=
EXTT0=
EXTT1=
EXTT2=
EXTT3=
EXTT4=
EXTT5=
EXTT6=
EXTT7=
EXTT8=
EXTT9=
EXTT10=
EXTT11=
PLAYORDER=
